<?xml version="1.0" encoding="UTF-8"?>
<svg xmlns="http://www.w3.org/2000/svg" xmlns:xlink="http://www.w3.org/1999/xlink" width="360.88pt" height="222.94pt" viewBox="0 0 360.88 222.94" version="1.2">
<g id="surface1">
<path style="fill:none;stroke-width:5;stroke-linecap:round;stroke-linejoin:round;stroke:rgb(0%,0%,0%);stroke-opacity:1;stroke-miterlimit:10;" d="M 328.077806 493.776511 L 362.151633 526.482695 L 362.151633 548.247743 L 339.409698 570.051866 L 316.706839 570.051866 L 293.964904 548.247743 L 271.262045 548.247743 L 248.520111 570.051866 L 225.817251 570.051866 L 203.114392 548.247743 L 203.114392 526.482695 L 225.817251 504.678573 L 225.817251 482.87445 L 203.114392 461.109402 L 180.372458 461.109402 L 157.669598 482.87445 L 134.927664 482.87445 L 112.224805 461.109402 L 112.224805 439.305279 L 134.927664 417.501156 L 157.669598 417.501156 L 180.372458 439.305279 L 203.114392 439.305279 L 225.817251 417.501156 L 225.817251 395.736109 L 203.114392 373.931986 L 203.114392 352.166939 L 225.817251 330.362816 L 225.817251 308.558693 L 203.114392 286.793645 L 180.372458 286.793645 L 157.669598 308.558693 L 134.927664 308.558693 L 112.224805 286.793645 L 112.224805 264.989522 L 134.927664 243.1854 L 157.669598 243.1854 L 180.372458 264.989522 L 203.114392 264.989522 L 225.817251 243.1854 L 248.520111 243.1854 L 271.262045 264.989522 L 271.262045 286.793645 L 248.520111 308.558693 L 248.520111 330.362816 L 271.262045 352.166939 L 293.964904 352.166939 L 316.706839 330.362816 L 316.706839 308.558693 L 293.964904 286.793645 " transform="matrix(0.0999668,0,0,-0.0999668,0,222.872956)"/>
<path style="fill:none;stroke-width:5;stroke-linecap:round;stroke-linejoin:round;stroke:rgb(0%,0%,0%);stroke-opacity:1;stroke-miterlimit:10;" d="M 293.964904 286.793645 L 293.964904 264.989522 L 316.706839 243.1854 L 339.409698 243.1854 L 362.151633 264.989522 L 384.854492 264.989522 L 407.596427 243.1854 L 407.596427 221.420352 L 384.854492 199.616229 L 384.854492 177.851182 L 407.596427 156.047059 L 407.596427 134.242936 L 384.854492 112.477889 L 362.151633 112.477889 L 339.409698 134.242936 L 316.706839 134.242936 L 293.964904 112.477889 L 293.964904 90.673766 L 316.706839 68.869643 L 339.409698 68.869643 L 362.151633 90.673766 L 384.854492 90.673766 L 407.596427 68.869643 L 430.299286 68.869643 L 453.04122 90.673766 L 453.04122 112.477889 L 430.299286 134.242936 L 430.299286 156.047059 L 453.04122 177.851182 L 475.74408 177.851182 L 498.486014 156.047059 L 521.188873 156.047059 L 543.930808 177.851182 L 543.930808 199.616229 L 521.188873 221.420352 L 498.486014 221.420352 L 475.74408 199.616229 L 453.04122 199.616229 L 430.299286 221.420352 L 430.299286 243.1854 L 453.04122 264.989522 L 453.04122 286.793645 L 430.299286 308.558693 L 430.299286 330.362816 L 453.04122 352.166939 L 475.74408 352.166939 L 498.486014 330.362816 L 498.486014 308.558693 L 475.74408 286.793645 L 475.74408 264.989522 L 498.486014 243.1854 " transform="matrix(0.0999668,0,0,-0.0999668,0,222.872956)"/>
<path style="fill:none;stroke-width:5;stroke-linecap:round;stroke-linejoin:round;stroke:rgb(0%,0%,0%);stroke-opacity:1;stroke-miterlimit:10;" d="M 498.486014 243.1854 L 521.188873 243.1854 L 543.930808 264.989522 L 566.633667 264.989522 L 589.336526 243.1854 L 612.078461 243.1854 L 634.78132 264.989522 L 634.78132 286.793645 L 612.078461 308.558693 L 612.078461 330.362816 L 634.78132 352.166939 L 657.523255 352.166939 L 680.226114 330.362816 L 680.226114 308.558693 L 657.523255 286.793645 L 657.523255 264.989522 L 680.226114 243.1854 L 702.968049 243.1854 L 725.670908 264.989522 L 748.412842 264.989522 L 771.115702 243.1854 L 771.115702 221.420352 L 748.412842 199.616229 L 748.412842 177.851182 L 771.115702 156.047059 L 771.115702 134.242936 L 748.412842 112.477889 L 725.670908 112.477889 L 702.968049 134.242936 L 680.226114 134.242936 L 657.523255 112.477889 L 657.523255 90.673766 L 680.226114 68.869643 L 702.968049 68.869643 L 725.670908 90.673766 L 748.412842 90.673766 L 771.115702 68.869643 L 793.857636 68.869643 L 816.560495 90.673766 L 816.560495 112.477889 L 793.857636 134.242936 L 793.857636 156.047059 L 816.560495 177.851182 L 839.30243 177.851182 L 862.005289 156.047059 L 884.747224 156.047059 L 907.450083 177.851182 L 907.450083 199.616229 L 884.747224 221.420352 L 862.005289 221.420352 L 839.30243 199.616229 " transform="matrix(0.0999668,0,0,-0.0999668,0,222.872956)"/>
<path style="fill:none;stroke-width:5;stroke-linecap:round;stroke-linejoin:round;stroke:rgb(0%,0%,0%);stroke-opacity:1;stroke-miterlimit:10;" d="M 839.30243 199.616229 L 816.560495 199.616229 L 793.857636 221.420352 L 793.857636 243.1854 L 816.560495 264.989522 L 816.560495 286.793645 L 793.857636 308.558693 L 793.857636 330.362816 L 816.560495 352.166939 L 839.30243 352.166939 L 862.005289 330.362816 L 884.747224 330.362816 L 907.450083 352.166939 L 907.450083 373.931986 L 884.747224 395.736109 L 862.005289 395.736109 L 839.30243 373.931986 L 816.560495 373.931986 L 793.857636 395.736109 L 771.115702 395.736109 L 748.412842 373.931986 L 748.412842 352.166939 L 771.115702 330.362816 L 771.115702 308.558693 L 748.412842 286.793645 L 725.670908 286.793645 L 702.968049 308.558693 L 702.968049 330.362816 L 725.670908 352.166939 L 725.670908 373.931986 L 702.968049 395.736109 L 680.226114 395.736109 L 657.523255 373.931986 L 634.78132 373.931986 L 612.078461 395.736109 L 612.078461 417.501156 L 634.78132 439.305279 L 634.78132 461.109402 L 612.078461 482.87445 L 612.078461 504.678573 L 634.78132 526.482695 L 657.523255 526.482695 L 680.226114 504.678573 L 680.226114 482.87445 L 657.523255 461.109402 L 657.523255 439.305279 L 680.226114 417.501156 L 702.968049 417.501156 L 725.670908 439.305279 L 748.412842 439.305279 L 771.115702 417.501156 " transform="matrix(0.0999668,0,0,-0.0999668,0,222.872956)"/>
<path style="fill:none;stroke-width:5;stroke-linecap:round;stroke-linejoin:round;stroke:rgb(0%,0%,0%);stroke-opacity:1;stroke-miterlimit:10;" d="M 771.115702 417.501156 L 793.857636 417.501156 L 816.560495 439.305279 L 816.560495 461.109402 L 793.857636 482.87445 L 793.857636 504.678573 L 816.560495 526.482695 L 839.30243 526.482695 L 862.005289 504.678573 L 884.747224 504.678573 L 907.450083 526.482695 L 907.450083 548.247743 L 884.747224 570.051866 L 862.005289 570.051866 L 839.30243 548.247743 L 816.560495 548.247743 L 793.857636 570.051866 L 793.857636 591.855989 L 816.560495 613.621036 L 816.560495 635.425159 L 793.857636 657.229282 L 793.857636 678.994329 L 816.560495 700.798452 L 839.30243 700.798452 L 862.005289 678.994329 L 862.005289 657.229282 L 839.30243 635.425159 L 839.30243 613.621036 L 862.005289 591.855989 L 884.747224 591.855989 L 907.450083 613.621036 L 930.152942 613.621036 L 952.894877 591.855989 L 975.597736 591.855989 L 998.339671 613.621036 L 998.339671 635.425159 L 975.597736 657.229282 L 975.597736 678.994329 L 998.339671 700.798452 L 1021.04253 700.798452 L 1043.784464 678.994329 L 1043.784464 657.229282 L 1021.04253 635.425159 L 1021.04253 613.621036 L 1043.784464 591.855989 L 1066.487324 591.855989 L 1089.229258 613.621036 L 1111.932117 613.621036 L 1134.674052 591.855989 L 1134.674052 570.051866 L 1111.932117 548.247743 " transform="matrix(0.0999668,0,0,-0.0999668,0,222.872956)"/>
<path style="fill:none;stroke-width:5;stroke-linecap:round;stroke-linejoin:round;stroke:rgb(0%,0%,0%);stroke-opacity:1;stroke-miterlimit:10;" d="M 1111.932117 548.247743 L 1111.932117 526.482695 L 1134.674052 504.678573 L 1134.674052 482.87445 L 1111.932117 461.109402 L 1089.229258 461.109402 L 1066.487324 482.87445 L 1055.155432 493.776511 " transform="matrix(0.0999668,0,0,-0.0999668,0,222.872956)"/>
<path style="fill:none;stroke-width:5;stroke-linecap:round;stroke-linejoin:round;stroke:rgb(0%,0%,0%);stroke-opacity:1;stroke-miterlimit:10;" d="M 1515.425618 490.142491 L 1548.75701 490.142491 L 1559.893524 500.692873 L 1559.893524 521.754561 L 1548.75701 532.265868 L 1526.523056 532.265868 L 1515.425618 542.81625 L 1515.425618 563.877938 L 1504.328179 574.428321 L 1482.05515 574.428321 L 1470.957711 563.877938 L 1470.957711 542.81625 L 1459.860272 532.265868 L 1437.626319 532.265868 L 1426.52888 542.81625 L 1426.52888 563.877938 L 1415.392366 574.428321 L 1393.158412 574.428321 L 1382.060973 563.877938 L 1382.060973 542.81625 L 1393.158412 532.265868 L 1415.392366 532.265868 L 1426.52888 521.754561 L 1426.52888 500.692873 L 1415.392366 490.142491 L 1393.158412 490.142491 L 1382.060973 479.631184 L 1382.060973 458.569495 L 1370.924459 448.019113 L 1348.690506 448.019113 L 1337.593067 458.569495 L 1337.593067 479.631184 L 1326.495628 490.142491 L 1304.261675 490.142491 L 1293.12516 479.631184 L 1293.12516 458.569495 L 1304.261675 448.019113 L 1326.495628 448.019113 L 1337.593067 437.507807 L 1337.593067 416.446118 L 1348.690506 405.895736 L 1370.924459 405.895736 L 1382.060973 416.446118 L 1382.060973 437.507807 L 1393.158412 448.019113 L 1415.392366 448.019113 L 1426.52888 437.507807 L 1426.52888 416.446118 L 1415.392366 405.895736 L 1393.158412 405.895736 " transform="matrix(0.0999668,0,0,-0.0999668,0,222.872956)"/>
<path style="fill:none;stroke-width:5;stroke-linecap:round;stroke-linejoin:round;stroke:rgb(0%,0%,0%);stroke-opacity:1;stroke-miterlimit:10;" d="M 1393.158412 405.895736 L 1382.060973 395.38443 L 1382.060973 374.322741 L 1393.158412 363.772359 L 1415.392366 363.772359 L 1426.52888 353.261052 L 1426.52888 332.199364 L 1415.392366 321.648982 L 1393.158412 321.648982 L 1382.060973 311.0986 L 1382.060973 290.036911 L 1370.924459 279.525604 L 1348.690506 279.525604 L 1337.593067 290.036911 L 1337.593067 311.0986 L 1326.495628 321.648982 L 1304.261675 321.648982 L 1293.12516 311.0986 L 1293.12516 290.036911 L 1304.261675 279.525604 L 1326.495628 279.525604 L 1337.593067 268.975222 L 1337.593067 247.913534 L 1348.690506 237.402227 L 1370.924459 237.402227 L 1382.060973 247.913534 L 1382.060973 268.975222 L 1393.158412 279.525604 L 1415.392366 279.525604 L 1426.52888 268.975222 L 1426.52888 247.913534 L 1437.626319 237.402227 L 1459.860272 237.402227 L 1470.957711 247.913534 L 1470.957711 268.975222 L 1459.860272 279.525604 L 1437.626319 279.525604 L 1426.52888 290.036911 L 1426.52888 311.0986 L 1437.626319 321.648982 L 1459.860272 321.648982 L 1470.957711 332.199364 L 1470.957711 353.261052 L 1482.05515 363.772359 L 1504.328179 363.772359 L 1515.425618 353.261052 L 1515.425618 332.199364 L 1504.328179 321.648982 L 1482.05515 321.648982 L 1470.957711 311.0986 L 1470.957711 290.036911 " transform="matrix(0.0999668,0,0,-0.0999668,0,222.872956)"/>
<path style="fill:none;stroke-width:5;stroke-linecap:round;stroke-linejoin:round;stroke:rgb(0%,0%,0%);stroke-opacity:1;stroke-miterlimit:10;" d="M 1470.957711 290.036911 L 1482.05515 279.525604 L 1504.328179 279.525604 L 1515.425618 268.975222 L 1515.425618 247.913534 L 1526.523056 237.402227 L 1548.75701 237.402227 L 1559.893524 247.913534 L 1559.893524 268.975222 L 1570.990963 279.525604 L 1593.224916 279.525604 L 1604.322355 268.975222 L 1604.322355 247.913534 L 1593.224916 237.402227 L 1570.990963 237.402227 L 1559.893524 226.851845 L 1559.893524 205.790157 L 1570.990963 195.27885 L 1593.224916 195.27885 L 1604.322355 184.728468 L 1604.322355 163.666779 L 1593.224916 153.155473 L 1570.990963 153.155473 L 1559.893524 142.605091 L 1559.893524 121.543402 L 1548.75701 110.99302 L 1526.523056 110.99302 L 1515.425618 121.543402 L 1515.425618 142.605091 L 1504.328179 153.155473 L 1482.05515 153.155473 L 1470.957711 142.605091 L 1470.957711 121.543402 L 1482.05515 110.99302 L 1504.328179 110.99302 L 1515.425618 100.481713 L 1515.425618 79.420025 L 1526.523056 68.869643 L 1548.75701 68.869643 L 1559.893524 79.420025 L 1559.893524 100.481713 L 1570.990963 110.99302 L 1593.224916 110.99302 L 1604.322355 100.481713 L 1604.322355 79.420025 L 1615.45887 68.869643 L 1637.653747 68.869643 L 1648.790262 79.420025 L 1648.790262 100.481713 L 1637.653747 110.99302 L 1615.45887 110.99302 " transform="matrix(0.0999668,0,0,-0.0999668,0,222.872956)"/>
<path style="fill:none;stroke-width:5;stroke-linecap:round;stroke-linejoin:round;stroke:rgb(0%,0%,0%);stroke-opacity:1;stroke-miterlimit:10;" d="M 1615.45887 110.99302 L 1604.322355 121.543402 L 1604.322355 142.605091 L 1615.45887 153.155473 L 1637.653747 153.155473 L 1648.790262 163.666779 L 1648.790262 184.728468 L 1659.887701 195.27885 L 1682.121654 195.27885 L 1693.258168 184.728468 L 1693.258168 163.666779 L 1704.355607 153.155473 L 1726.589561 153.155473 L 1737.686999 163.666779 L 1737.686999 184.728468 L 1726.589561 195.27885 L 1704.355607 195.27885 L 1693.258168 205.790157 L 1693.258168 226.851845 L 1682.121654 237.402227 L 1659.887701 237.402227 L 1648.790262 226.851845 L 1648.790262 205.790157 L 1637.653747 195.27885 L 1615.45887 195.27885 L 1604.322355 205.790157 L 1604.322355 226.851845 L 1615.45887 237.402227 L 1637.653747 237.402227 L 1648.790262 247.913534 L 1648.790262 268.975222 L 1637.653747 279.525604 L 1615.45887 279.525604 L 1604.322355 290.036911 L 1604.322355 311.0986 L 1615.45887 321.648982 L 1637.653747 321.648982 L 1648.790262 332.199364 L 1648.790262 353.261052 L 1659.887701 363.772359 L 1682.121654 363.772359 L 1693.258168 353.261052 L 1693.258168 332.199364 L 1682.121654 321.648982 L 1659.887701 321.648982 L 1648.790262 311.0986 L 1648.790262 290.036911 L 1659.887701 279.525604 L 1682.121654 279.525604 L 1693.258168 268.975222 L 1693.258168 247.913534 " transform="matrix(0.0999668,0,0,-0.0999668,0,222.872956)"/>
<path style="fill:none;stroke-width:5;stroke-linecap:round;stroke-linejoin:round;stroke:rgb(0%,0%,0%);stroke-opacity:1;stroke-miterlimit:10;" d="M 1693.258168 247.913534 L 1704.355607 237.402227 L 1726.589561 237.402227 L 1737.686999 247.913534 L 1737.686999 268.975222 L 1748.784438 279.525604 L 1771.018392 279.525604 L 1782.154906 268.975222 L 1782.154906 247.913534 L 1793.252345 237.402227 L 1815.486298 237.402227 L 1826.583737 247.913534 L 1826.583737 268.975222 L 1815.486298 279.525604 L 1793.252345 279.525604 L 1782.154906 290.036911 L 1782.154906 311.0986 L 1793.252345 321.648982 L 1815.486298 321.648982 L 1826.583737 332.199364 L 1826.583737 353.261052 L 1837.720252 363.772359 L 1859.954205 363.772359 L 1871.051644 353.261052 L 1871.051644 332.199364 L 1859.954205 321.648982 L 1837.720252 321.648982 L 1826.583737 311.0986 L 1826.583737 290.036911 L 1837.720252 279.525604 L 1859.954205 279.525604 L 1871.051644 268.975222 L 1871.051644 247.913534 L 1882.188158 237.402227 L 1904.383036 237.402227 L 1915.51955 247.913534 L 1915.51955 268.975222 L 1926.616989 279.525604 L 1948.850942 279.525604 L 1959.987457 268.975222 L 1959.987457 247.913534 L 1948.850942 237.402227 L 1926.616989 237.402227 L 1915.51955 226.851845 L 1915.51955 205.790157 L 1926.616989 195.27885 L 1948.850942 195.27885 L 1959.987457 184.728468 L 1959.987457 163.666779 L 1948.850942 153.155473 L 1926.616989 153.155473 " transform="matrix(0.0999668,0,0,-0.0999668,0,222.872956)"/>
<path style="fill:none;stroke-width:5;stroke-linecap:round;stroke-linejoin:round;stroke:rgb(0%,0%,0%);stroke-opacity:1;stroke-miterlimit:10;" d="M 1926.616989 153.155473 L 1915.51955 142.605091 L 1915.51955 121.543402 L 1904.383036 110.99302 L 1882.188158 110.99302 L 1871.051644 121.543402 L 1871.051644 142.605091 L 1859.954205 153.155473 L 1837.720252 153.155473 L 1826.583737 142.605091 L 1826.583737 121.543402 L 1837.720252 110.99302 L 1859.954205 110.99302 L 1871.051644 100.481713 L 1871.051644 79.420025 L 1882.188158 68.869643 L 1904.383036 68.869643 L 1915.51955 79.420025 L 1915.51955 100.481713 L 1926.616989 110.99302 L 1948.850942 110.99302 L 1959.987457 100.481713 L 1959.987457 79.420025 L 1971.084896 68.869643 L 1993.318849 68.869643 L 2004.416288 79.420025 L 2004.416288 100.481713 L 1993.318849 110.99302 L 1971.084896 110.99302 L 1959.987457 121.543402 L 1959.987457 142.605091 L 1971.084896 153.155473 L 1993.318849 153.155473 L 2004.416288 163.666779 L 2004.416288 184.728468 L 2015.552802 195.27885 L 2037.74768 195.27885 L 2048.884195 184.728468 L 2048.884195 163.666779 L 2059.981633 153.155473 L 2082.215587 153.155473 L 2093.313026 163.666779 L 2093.313026 184.728468 L 2082.215587 195.27885 L 2059.981633 195.27885 L 2048.884195 205.790157 L 2048.884195 226.851845 L 2037.74768 237.402227 L 2015.552802 237.402227 L 2004.416288 226.851845 L 2004.416288 205.790157 " transform="matrix(0.0999668,0,0,-0.0999668,0,222.872956)"/>
<path style="fill:none;stroke-width:5;stroke-linecap:round;stroke-linejoin:round;stroke:rgb(0%,0%,0%);stroke-opacity:1;stroke-miterlimit:10;" d="M 2004.416288 205.790157 L 1993.318849 195.27885 L 1971.084896 195.27885 L 1959.987457 205.790157 L 1959.987457 226.851845 L 1971.084896 237.402227 L 1993.318849 237.402227 L 2004.416288 247.913534 L 2004.416288 268.975222 L 1993.318849 279.525604 L 1971.084896 279.525604 L 1959.987457 290.036911 L 1959.987457 311.0986 L 1971.084896 321.648982 L 1993.318849 321.648982 L 2004.416288 332.199364 L 2004.416288 353.261052 L 2015.552802 363.772359 L 2037.74768 363.772359 L 2048.884195 353.261052 L 2048.884195 332.199364 L 2059.981633 321.648982 L 2082.215587 321.648982 L 2093.313026 332.199364 L 2093.313026 353.261052 L 2082.215587 363.772359 L 2059.981633 363.772359 L 2048.884195 374.322741 L 2048.884195 395.38443 L 2037.74768 405.895736 L 2015.552802 405.895736 L 2004.416288 395.38443 L 2004.416288 374.322741 L 1993.318849 363.772359 L 1971.084896 363.772359 L 1959.987457 374.322741 L 1959.987457 395.38443 L 1948.850942 405.895736 L 1926.616989 405.895736 L 1915.51955 395.38443 L 1915.51955 374.322741 L 1926.616989 363.772359 L 1948.850942 363.772359 L 1959.987457 353.261052 L 1959.987457 332.199364 L 1948.850942 321.648982 L 1926.616989 321.648982 L 1915.51955 311.0986 L 1915.51955 290.036911 L 1904.383036 279.525604 L 1882.188158 279.525604 " transform="matrix(0.0999668,0,0,-0.0999668,0,222.872956)"/>
<path style="fill:none;stroke-width:5;stroke-linecap:round;stroke-linejoin:round;stroke:rgb(0%,0%,0%);stroke-opacity:1;stroke-miterlimit:10;" d="M 1882.188158 279.525604 L 1871.051644 290.036911 L 1871.051644 311.0986 L 1882.188158 321.648982 L 1904.383036 321.648982 L 1915.51955 332.199364 L 1915.51955 353.261052 L 1904.383036 363.772359 L 1882.188158 363.772359 L 1871.051644 374.322741 L 1871.051644 395.38443 L 1859.954205 405.895736 L 1837.720252 405.895736 L 1826.583737 395.38443 L 1826.583737 374.322741 L 1815.486298 363.772359 L 1793.252345 363.772359 L 1782.154906 374.322741 L 1782.154906 395.38443 L 1793.252345 405.895736 L 1815.486298 405.895736 L 1826.583737 416.446118 L 1826.583737 437.507807 L 1815.486298 448.019113 L 1793.252345 448.019113 L 1782.154906 458.569495 L 1782.154906 479.631184 L 1793.252345 490.142491 L 1815.486298 490.142491 L 1826.583737 500.692873 L 1826.583737 521.754561 L 1837.720252 532.265868 L 1859.954205 532.265868 L 1871.051644 521.754561 L 1871.051644 500.692873 L 1859.954205 490.142491 L 1837.720252 490.142491 L 1826.583737 479.631184 L 1826.583737 458.569495 L 1837.720252 448.019113 L 1859.954205 448.019113 L 1871.051644 437.507807 L 1871.051644 416.446118 L 1882.188158 405.895736 L 1904.383036 405.895736 L 1915.51955 416.446118 L 1915.51955 437.507807 L 1926.616989 448.019113 L 1948.850942 448.019113 L 1959.987457 437.507807 L 1959.987457 416.446118 " transform="matrix(0.0999668,0,0,-0.0999668,0,222.872956)"/>
<path style="fill:none;stroke-width:5;stroke-linecap:round;stroke-linejoin:round;stroke:rgb(0%,0%,0%);stroke-opacity:1;stroke-miterlimit:10;" d="M 1959.987457 416.446118 L 1971.084896 405.895736 L 1993.318849 405.895736 L 2004.416288 416.446118 L 2004.416288 437.507807 L 1993.318849 448.019113 L 1971.084896 448.019113 L 1959.987457 458.569495 L 1959.987457 479.631184 L 1971.084896 490.142491 L 1993.318849 490.142491 L 2004.416288 500.692873 L 2004.416288 521.754561 L 2015.552802 532.265868 L 2037.74768 532.265868 L 2048.884195 521.754561 L 2048.884195 500.692873 L 2059.981633 490.142491 L 2082.215587 490.142491 L 2093.313026 500.692873 L 2093.313026 521.754561 L 2082.215587 532.265868 L 2059.981633 532.265868 L 2048.884195 542.81625 L 2048.884195 563.877938 L 2037.74768 574.428321 L 2015.552802 574.428321 L 2004.416288 563.877938 L 2004.416288 542.81625 L 1993.318849 532.265868 L 1971.084896 532.265868 L 1959.987457 542.81625 L 1959.987457 563.877938 L 1971.084896 574.428321 L 1993.318849 574.428321 L 2004.416288 584.939627 L 2004.416288 606.001316 L 1993.318849 616.551698 L 1971.084896 616.551698 L 1959.987457 627.063004 L 1959.987457 648.124693 L 1971.084896 658.675075 L 1993.318849 658.675075 L 2004.416288 669.186382 L 2004.416288 690.24807 L 2015.552802 700.798452 L 2037.74768 700.798452 L 2048.884195 690.24807 L 2048.884195 669.186382 L 2037.74768 658.675075 L 2015.552802 658.675075 " transform="matrix(0.0999668,0,0,-0.0999668,0,222.872956)"/>
<path style="fill:none;stroke-width:5;stroke-linecap:round;stroke-linejoin:round;stroke:rgb(0%,0%,0%);stroke-opacity:1;stroke-miterlimit:10;" d="M 2015.552802 658.675075 L 2004.416288 648.124693 L 2004.416288 627.063004 L 2015.552802 616.551698 L 2037.74768 616.551698 L 2048.884195 606.001316 L 2048.884195 584.939627 L 2059.981633 574.428321 L 2082.215587 574.428321 L 2093.313026 584.939627 L 2093.313026 606.001316 L 2104.44954 616.551698 L 2126.683493 616.551698 L 2137.780932 606.001316 L 2137.780932 584.939627 L 2148.917447 574.428321 L 2171.112324 574.428321 L 2182.248839 584.939627 L 2182.248839 606.001316 L 2171.112324 616.551698 L 2148.917447 616.551698 L 2137.780932 627.063004 L 2137.780932 648.124693 L 2148.917447 658.675075 L 2171.112324 658.675075 L 2182.248839 669.186382 L 2182.248839 690.24807 L 2193.346278 700.798452 L 2215.580231 700.798452 L 2226.67767 690.24807 L 2226.67767 669.186382 L 2215.580231 658.675075 L 2193.346278 658.675075 L 2182.248839 648.124693 L 2182.248839 627.063004 L 2193.346278 616.551698 L 2215.580231 616.551698 L 2226.67767 606.001316 L 2226.67767 584.939627 L 2237.814184 574.428321 L 2260.048138 574.428321 L 2271.145576 584.939627 L 2271.145576 606.001316 L 2282.243015 616.551698 L 2304.476969 616.551698 L 2315.613483 606.001316 L 2315.613483 584.939627 L 2304.476969 574.428321 L 2282.243015 574.428321 L 2271.145576 563.877938 L 2271.145576 542.81625 " transform="matrix(0.0999668,0,0,-0.0999668,0,222.872956)"/>
<path style="fill:none;stroke-width:5;stroke-linecap:round;stroke-linejoin:round;stroke:rgb(0%,0%,0%);stroke-opacity:1;stroke-miterlimit:10;" d="M 2271.145576 542.81625 L 2282.243015 532.265868 L 2304.476969 532.265868 L 2315.613483 521.754561 L 2315.613483 500.692873 L 2304.476969 490.142491 L 2282.243015 490.142491 L 2271.145576 479.631184 L 2271.145576 458.569495 L 2260.048138 448.019113 L 2237.814184 448.019113 L 2226.67767 458.569495 L 2226.67767 490.142491 " transform="matrix(0.0999668,0,0,-0.0999668,0,222.872956)"/>
<path style="fill:none;stroke-width:5;stroke-linecap:round;stroke-linejoin:round;stroke:rgb(0%,0%,0%);stroke-opacity:1;stroke-miterlimit:10;" d="M 2688.4718 498.778174 L 2704.961656 483.265205 L 2715.941869 483.265205 L 2726.922081 493.620209 L 2726.922081 503.975214 L 2715.941869 514.330218 L 2715.941869 524.685223 L 2726.922081 535.040228 L 2726.922081 545.395232 L 2715.941869 555.750237 L 2704.961656 555.750237 L 2693.942368 545.395232 L 2682.962156 545.395232 L 2671.981943 555.750237 L 2671.981943 566.144317 L 2682.962156 576.499321 L 2682.962156 586.854326 L 2671.981943 597.209331 L 2660.962656 597.209331 L 2649.982443 586.854326 L 2649.982443 576.499321 L 2660.962656 566.144317 L 2660.962656 555.750237 L 2649.982443 545.395232 L 2639.002231 545.395232 L 2627.982943 555.750237 L 2617.00273 555.750237 L 2606.022518 545.395232 L 2595.00323 545.395232 L 2584.023018 555.750237 L 2584.023018 566.144317 L 2595.00323 576.499321 L 2595.00323 586.854326 L 2584.023018 597.209331 L 2573.042805 597.209331 L 2562.023517 586.854326 L 2562.023517 576.499321 L 2573.042805 566.144317 L 2573.042805 555.750237 L 2562.023517 545.395232 L 2562.023517 535.040228 L 2573.042805 524.685223 L 2584.023018 524.685223 L 2595.00323 535.040228 L 2606.022518 535.040228 L 2617.00273 524.685223 L 2617.00273 514.330218 L 2606.022518 503.975214 L 2595.00323 503.975214 L 2584.023018 514.330218 " transform="matrix(0.0999668,0,0,-0.0999668,0,222.872956)"/>
<path style="fill:none;stroke-width:5;stroke-linecap:round;stroke-linejoin:round;stroke:rgb(0%,0%,0%);stroke-opacity:1;stroke-miterlimit:10;" d="M 2584.023018 514.330218 L 2573.042805 514.330218 L 2562.023517 503.975214 L 2562.023517 493.620209 L 2573.042805 483.265205 L 2573.042805 472.9102 L 2562.023517 462.51612 L 2551.043305 462.51612 L 2540.024017 472.9102 L 2529.043804 472.9102 L 2518.063592 462.51612 L 2507.044304 462.51612 L 2496.064092 472.9102 L 2496.064092 483.265205 L 2507.044304 493.620209 L 2507.044304 503.975214 L 2496.064092 514.330218 L 2485.083879 514.330218 L 2474.064591 503.975214 L 2474.064591 493.620209 L 2485.083879 483.265205 L 2485.083879 472.9102 L 2474.064591 462.51612 L 2474.064591 452.161115 L 2485.083879 441.806111 L 2496.064092 441.806111 L 2507.044304 452.161115 L 2518.063592 452.161115 L 2529.043804 441.806111 L 2529.043804 431.451106 L 2518.063592 421.096101 L 2518.063592 410.741097 L 2529.043804 400.386092 L 2540.024017 400.386092 L 2551.043305 410.741097 L 2551.043305 421.096101 L 2540.024017 431.451106 L 2540.024017 441.806111 L 2551.043305 452.161115 L 2562.023517 452.161115 L 2573.042805 441.806111 L 2584.023018 441.806111 L 2595.00323 452.161115 L 2606.022518 452.161115 L 2617.00273 441.806111 L 2617.00273 431.451106 L 2606.022518 421.096101 L 2595.00323 421.096101 L 2584.023018 431.451106 L 2573.042805 431.451106 L 2562.023517 421.096101 " transform="matrix(0.0999668,0,0,-0.0999668,0,222.872956)"/>
<path style="fill:none;stroke-width:5;stroke-linecap:round;stroke-linejoin:round;stroke:rgb(0%,0%,0%);stroke-opacity:1;stroke-miterlimit:10;" d="M 2562.023517 421.096101 L 2562.023517 410.741097 L 2573.042805 400.386092 L 2573.042805 390.031088 L 2562.023517 379.637007 L 2562.023517 369.282003 L 2573.042805 358.926998 L 2584.023018 358.926998 L 2595.00323 369.282003 L 2606.022518 369.282003 L 2617.00273 358.926998 L 2617.00273 348.571994 L 2606.022518 338.216989 L 2595.00323 338.216989 L 2584.023018 348.571994 L 2573.042805 348.571994 L 2562.023517 338.216989 L 2562.023517 327.861984 L 2573.042805 317.50698 L 2573.042805 307.151975 L 2562.023517 296.796971 L 2551.043305 296.796971 L 2540.024017 307.151975 L 2529.043804 307.151975 L 2518.063592 296.796971 L 2507.044304 296.796971 L 2496.064092 307.151975 L 2496.064092 317.50698 L 2507.044304 327.861984 L 2507.044304 338.216989 L 2496.064092 348.571994 L 2485.083879 348.571994 L 2474.064591 338.216989 L 2474.064591 327.861984 L 2485.083879 317.50698 L 2485.083879 307.151975 L 2474.064591 296.796971 L 2474.064591 286.441966 L 2485.083879 276.047886 L 2496.064092 276.047886 L 2507.044304 286.441966 L 2518.063592 286.441966 L 2529.043804 276.047886 L 2529.043804 265.692881 L 2518.063592 255.337877 L 2518.063592 244.982872 L 2529.043804 234.627867 L 2540.024017 234.627867 L 2551.043305 244.982872 L 2551.043305 255.337877 L 2540.024017 265.692881 " transform="matrix(0.0999668,0,0,-0.0999668,0,222.872956)"/>
<path style="fill:none;stroke-width:5;stroke-linecap:round;stroke-linejoin:round;stroke:rgb(0%,0%,0%);stroke-opacity:1;stroke-miterlimit:10;" d="M 2540.024017 265.692881 L 2540.024017 276.047886 L 2551.043305 286.441966 L 2562.023517 286.441966 L 2573.042805 276.047886 L 2584.023018 276.047886 L 2595.00323 286.441966 L 2606.022518 286.441966 L 2617.00273 276.047886 L 2617.00273 265.692881 L 2606.022518 255.337877 L 2606.022518 244.982872 L 2617.00273 234.627867 L 2627.982943 234.627867 L 2639.002231 244.982872 L 2639.002231 255.337877 L 2627.982943 265.692881 L 2627.982943 276.047886 L 2639.002231 286.441966 L 2639.002231 296.796971 L 2627.982943 307.151975 L 2617.00273 307.151975 L 2606.022518 296.796971 L 2595.00323 296.796971 L 2584.023018 307.151975 L 2584.023018 317.50698 L 2595.00323 327.861984 L 2606.022518 327.861984 L 2617.00273 317.50698 L 2627.982943 317.50698 L 2639.002231 327.861984 L 2639.002231 338.216989 L 2627.982943 348.571994 L 2627.982943 358.926998 L 2639.002231 369.282003 L 2649.982443 369.282003 L 2660.962656 358.926998 L 2671.981943 358.926998 L 2682.962156 369.282003 L 2693.942368 369.282003 L 2704.961656 358.926998 L 2704.961656 348.571994 L 2693.942368 338.216989 L 2682.962156 338.216989 L 2671.981943 348.571994 L 2660.962656 348.571994 L 2649.982443 338.216989 L 2649.982443 327.861984 L 2660.962656 317.50698 L 2660.962656 307.151975 L 2649.982443 296.796971 " transform="matrix(0.0999668,0,0,-0.0999668,0,222.872956)"/>
<path style="fill:none;stroke-width:5;stroke-linecap:round;stroke-linejoin:round;stroke:rgb(0%,0%,0%);stroke-opacity:1;stroke-miterlimit:10;" d="M 2649.982443 296.796971 L 2649.982443 286.441966 L 2660.962656 276.047886 L 2671.981943 276.047886 L 2682.962156 286.441966 L 2693.942368 286.441966 L 2704.961656 276.047886 L 2704.961656 265.692881 L 2693.942368 255.337877 L 2693.942368 244.982872 L 2704.961656 234.627867 L 2715.941869 234.627867 L 2726.922081 244.982872 L 2726.922081 255.337877 L 2715.941869 265.692881 L 2715.941869 276.047886 L 2726.922081 286.441966 L 2737.941369 286.441966 L 2748.921581 276.047886 L 2759.940869 276.047886 L 2770.921082 286.441966 L 2781.901294 286.441966 L 2792.920582 276.047886 L 2792.920582 265.692881 L 2781.901294 255.337877 L 2770.921082 255.337877 L 2759.940869 265.692881 L 2748.921581 265.692881 L 2737.941369 255.337877 L 2737.941369 244.982872 L 2748.921581 234.627867 L 2748.921581 224.272863 L 2737.941369 213.917858 L 2737.941369 203.562854 L 2748.921581 193.207849 L 2759.940869 193.207849 L 2770.921082 203.562854 L 2781.901294 203.562854 L 2792.920582 193.207849 L 2792.920582 182.852844 L 2781.901294 172.458764 L 2770.921082 172.458764 L 2759.940869 182.852844 L 2748.921581 182.852844 L 2737.941369 172.458764 L 2737.941369 162.10376 L 2748.921581 151.748755 L 2748.921581 141.393751 L 2737.941369 131.038746 L 2726.922081 131.038746 L 2715.941869 141.393751 " transform="matrix(0.0999668,0,0,-0.0999668,0,222.872956)"/>
<path style="fill:none;stroke-width:5;stroke-linecap:round;stroke-linejoin:round;stroke:rgb(0%,0%,0%);stroke-opacity:1;stroke-miterlimit:10;" d="M 2715.941869 141.393751 L 2704.961656 141.393751 L 2693.942368 131.038746 L 2682.962156 131.038746 L 2671.981943 141.393751 L 2671.981943 151.748755 L 2682.962156 162.10376 L 2682.962156 172.458764 L 2671.981943 182.852844 L 2660.962656 182.852844 L 2649.982443 172.458764 L 2649.982443 162.10376 L 2660.962656 151.748755 L 2660.962656 141.393751 L 2649.982443 131.038746 L 2649.982443 120.683741 L 2660.962656 110.328737 L 2671.981943 110.328737 L 2682.962156 120.683741 L 2693.942368 120.683741 L 2704.961656 110.328737 L 2704.961656 99.973732 L 2693.942368 89.579652 L 2693.942368 79.224647 L 2704.961656 68.869643 L 2715.941869 68.869643 L 2726.922081 79.224647 L 2726.922081 89.579652 L 2715.941869 99.973732 L 2715.941869 110.328737 L 2726.922081 120.683741 L 2737.941369 120.683741 L 2748.921581 110.328737 L 2759.940869 110.328737 L 2770.921082 120.683741 L 2781.901294 120.683741 L 2792.920582 110.328737 L 2792.920582 99.973732 L 2781.901294 89.579652 L 2781.901294 79.224647 L 2792.920582 68.869643 L 2803.900795 68.869643 L 2814.881007 79.224647 L 2814.881007 89.579652 L 2803.900795 99.973732 L 2803.900795 110.328737 L 2814.881007 120.683741 L 2814.881007 131.038746 L 2803.900795 141.393751 L 2792.920582 141.393751 L 2781.901294 131.038746 " transform="matrix(0.0999668,0,0,-0.0999668,0,222.872956)"/>
<path style="fill:none;stroke-width:5;stroke-linecap:round;stroke-linejoin:round;stroke:rgb(0%,0%,0%);stroke-opacity:1;stroke-miterlimit:10;" d="M 2781.901294 131.038746 L 2770.921082 131.038746 L 2759.940869 141.393751 L 2759.940869 151.748755 L 2770.921082 162.10376 L 2781.901294 162.10376 L 2792.920582 151.748755 L 2803.900795 151.748755 L 2814.881007 162.10376 L 2814.881007 172.458764 L 2803.900795 182.852844 L 2803.900795 193.207849 L 2814.881007 203.562854 L 2825.900295 203.562854 L 2836.880507 193.207849 L 2847.86072 193.207849 L 2858.880008 203.562854 L 2869.86022 203.562854 L 2880.879508 193.207849 L 2880.879508 182.852844 L 2869.86022 172.458764 L 2869.86022 162.10376 L 2880.879508 151.748755 L 2891.859721 151.748755 L 2902.879008 162.10376 L 2902.879008 172.458764 L 2891.859721 182.852844 L 2891.859721 193.207849 L 2902.879008 203.562854 L 2902.879008 213.917858 L 2891.859721 224.272863 L 2880.879508 224.272863 L 2869.86022 213.917858 L 2858.880008 213.917858 L 2847.86072 224.272863 L 2847.86072 234.627867 L 2858.880008 244.982872 L 2858.880008 255.337877 L 2847.86072 265.692881 L 2836.880507 265.692881 L 2825.900295 255.337877 L 2825.900295 244.982872 L 2836.880507 234.627867 L 2836.880507 224.272863 L 2825.900295 213.917858 L 2814.881007 213.917858 L 2803.900795 224.272863 L 2792.920582 224.272863 L 2781.901294 213.917858 L 2770.921082 213.917858 L 2759.940869 224.272863 " transform="matrix(0.0999668,0,0,-0.0999668,0,222.872956)"/>
<path style="fill:none;stroke-width:5;stroke-linecap:round;stroke-linejoin:round;stroke:rgb(0%,0%,0%);stroke-opacity:1;stroke-miterlimit:10;" d="M 2759.940869 224.272863 L 2759.940869 234.627867 L 2770.921082 244.982872 L 2781.901294 244.982872 L 2792.920582 234.627867 L 2803.900795 234.627867 L 2814.881007 244.982872 L 2814.881007 255.337877 L 2803.900795 265.692881 L 2803.900795 276.047886 L 2814.881007 286.441966 L 2814.881007 296.796971 L 2803.900795 307.151975 L 2792.920582 307.151975 L 2781.901294 296.796971 L 2770.921082 296.796971 L 2759.940869 307.151975 L 2759.940869 317.50698 L 2770.921082 327.861984 L 2781.901294 327.861984 L 2792.920582 317.50698 L 2803.900795 317.50698 L 2814.881007 327.861984 L 2814.881007 338.216989 L 2803.900795 348.571994 L 2803.900795 358.926998 L 2814.881007 369.282003 L 2825.900295 369.282003 L 2836.880507 358.926998 L 2847.86072 358.926998 L 2858.880008 369.282003 L 2869.86022 369.282003 L 2880.879508 358.926998 L 2880.879508 348.571994 L 2869.86022 338.216989 L 2858.880008 338.216989 L 2847.86072 348.571994 L 2836.880507 348.571994 L 2825.900295 338.216989 L 2825.900295 327.861984 L 2836.880507 317.50698 L 2836.880507 307.151975 L 2825.900295 296.796971 L 2825.900295 286.441966 L 2836.880507 276.047886 L 2847.86072 276.047886 L 2858.880008 286.441966 L 2869.86022 286.441966 L 2880.879508 276.047886 L 2880.879508 265.692881 L 2869.86022 255.337877 " transform="matrix(0.0999668,0,0,-0.0999668,0,222.872956)"/>
<path style="fill:none;stroke-width:5;stroke-linecap:round;stroke-linejoin:round;stroke:rgb(0%,0%,0%);stroke-opacity:1;stroke-miterlimit:10;" d="M 2869.86022 255.337877 L 2869.86022 244.982872 L 2880.879508 234.627867 L 2891.859721 234.627867 L 2902.879008 244.982872 L 2902.879008 255.337877 L 2891.859721 265.692881 L 2891.859721 276.047886 L 2902.879008 286.441966 L 2913.859221 286.441966 L 2924.839433 276.047886 L 2935.858721 276.047886 L 2946.838934 286.441966 L 2957.819146 286.441966 L 2968.838434 276.047886 L 2968.838434 265.692881 L 2957.819146 255.337877 L 2957.819146 244.982872 L 2968.838434 234.627867 L 2979.818646 234.627867 L 2990.798859 244.982872 L 2990.798859 255.337877 L 2979.818646 265.692881 L 2979.818646 276.047886 L 2990.798859 286.441966 L 2990.798859 296.796971 L 2979.818646 307.151975 L 2968.838434 307.151975 L 2957.819146 296.796971 L 2946.838934 296.796971 L 2935.858721 307.151975 L 2935.858721 317.50698 L 2946.838934 327.861984 L 2957.819146 327.861984 L 2968.838434 317.50698 L 2979.818646 317.50698 L 2990.798859 327.861984 L 2990.798859 338.216989 L 2979.818646 348.571994 L 2979.818646 358.926998 L 2990.798859 369.282003 L 3001.818147 369.282003 L 3012.798359 358.926998 L 3023.778572 358.926998 L 3034.79786 369.282003 L 3045.778072 369.282003 L 3056.758284 358.926998 L 3056.758284 348.571994 L 3045.778072 338.216989 L 3034.79786 338.216989 L 3023.778572 348.571994 " transform="matrix(0.0999668,0,0,-0.0999668,0,222.872956)"/>
<path style="fill:none;stroke-width:5;stroke-linecap:round;stroke-linejoin:round;stroke:rgb(0%,0%,0%);stroke-opacity:1;stroke-miterlimit:10;" d="M 3023.778572 348.571994 L 3012.798359 348.571994 L 3001.818147 338.216989 L 3001.818147 327.861984 L 3012.798359 317.50698 L 3012.798359 307.151975 L 3001.818147 296.796971 L 3001.818147 286.441966 L 3012.798359 276.047886 L 3023.778572 276.047886 L 3034.79786 286.441966 L 3045.778072 286.441966 L 3056.758284 276.047886 L 3056.758284 265.692881 L 3045.778072 255.337877 L 3045.778072 244.982872 L 3056.758284 234.627867 L 3067.777572 234.627867 L 3078.757785 244.982872 L 3078.757785 255.337877 L 3067.777572 265.692881 L 3067.777572 276.047886 L 3078.757785 286.441966 L 3089.777073 286.441966 L 3100.757285 276.047886 L 3111.737498 276.047886 L 3122.756785 286.441966 L 3133.736998 286.441966 L 3144.71721 276.047886 L 3144.71721 265.692881 L 3133.736998 255.337877 L 3122.756785 255.337877 L 3111.737498 265.692881 L 3100.757285 265.692881 L 3089.777073 255.337877 L 3089.777073 244.982872 L 3100.757285 234.627867 L 3100.757285 224.272863 L 3089.777073 213.917858 L 3089.777073 203.562854 L 3100.757285 193.207849 L 3111.737498 193.207849 L 3122.756785 203.562854 L 3133.736998 203.562854 L 3144.71721 193.207849 L 3144.71721 182.852844 L 3133.736998 172.458764 L 3122.756785 172.458764 L 3111.737498 182.852844 L 3100.757285 182.852844 L 3089.777073 172.458764 " transform="matrix(0.0999668,0,0,-0.0999668,0,222.872956)"/>
<path style="fill:none;stroke-width:5;stroke-linecap:round;stroke-linejoin:round;stroke:rgb(0%,0%,0%);stroke-opacity:1;stroke-miterlimit:10;" d="M 3089.777073 172.458764 L 3089.777073 162.10376 L 3100.757285 151.748755 L 3100.757285 141.393751 L 3089.777073 131.038746 L 3078.757785 131.038746 L 3067.777572 141.393751 L 3056.758284 141.393751 L 3045.778072 131.038746 L 3034.79786 131.038746 L 3023.778572 141.393751 L 3023.778572 151.748755 L 3034.79786 162.10376 L 3034.79786 172.458764 L 3023.778572 182.852844 L 3012.798359 182.852844 L 3001.818147 172.458764 L 3001.818147 162.10376 L 3012.798359 151.748755 L 3012.798359 141.393751 L 3001.818147 131.038746 L 3001.818147 120.683741 L 3012.798359 110.328737 L 3023.778572 110.328737 L 3034.79786 120.683741 L 3045.778072 120.683741 L 3056.758284 110.328737 L 3056.758284 99.973732 L 3045.778072 89.579652 L 3045.778072 79.224647 L 3056.758284 68.869643 L 3067.777572 68.869643 L 3078.757785 79.224647 L 3078.757785 89.579652 L 3067.777572 99.973732 L 3067.777572 110.328737 L 3078.757785 120.683741 L 3089.777073 120.683741 L 3100.757285 110.328737 L 3111.737498 110.328737 L 3122.756785 120.683741 L 3133.736998 120.683741 L 3144.71721 110.328737 L 3144.71721 99.973732 L 3133.736998 89.579652 L 3133.736998 79.224647 L 3144.71721 68.869643 L 3155.736498 68.869643 L 3166.716711 79.224647 L 3166.716711 89.579652 L 3155.736498 99.973732 " transform="matrix(0.0999668,0,0,-0.0999668,0,222.872956)"/>
<path style="fill:none;stroke-width:5;stroke-linecap:round;stroke-linejoin:round;stroke:rgb(0%,0%,0%);stroke-opacity:1;stroke-miterlimit:10;" d="M 3155.736498 99.973732 L 3155.736498 110.328737 L 3166.716711 120.683741 L 3166.716711 131.038746 L 3155.736498 141.393751 L 3144.71721 141.393751 L 3133.736998 131.038746 L 3122.756785 131.038746 L 3111.737498 141.393751 L 3111.737498 151.748755 L 3122.756785 162.10376 L 3133.736998 162.10376 L 3144.71721 151.748755 L 3155.736498 151.748755 L 3166.716711 162.10376 L 3166.716711 172.458764 L 3155.736498 182.852844 L 3155.736498 193.207849 L 3166.716711 203.562854 L 3177.696923 203.562854 L 3188.716211 193.207849 L 3199.696423 193.207849 L 3210.676636 203.562854 L 3221.695924 203.562854 L 3232.676136 193.207849 L 3232.676136 182.852844 L 3221.695924 172.458764 L 3221.695924 162.10376 L 3232.676136 151.748755 L 3243.695424 151.748755 L 3254.675637 162.10376 L 3254.675637 172.458764 L 3243.695424 182.852844 L 3243.695424 193.207849 L 3254.675637 203.562854 L 3254.675637 213.917858 L 3243.695424 224.272863 L 3232.676136 224.272863 L 3221.695924 213.917858 L 3210.676636 213.917858 L 3199.696423 224.272863 L 3199.696423 234.627867 L 3210.676636 244.982872 L 3210.676636 255.337877 L 3199.696423 265.692881 L 3188.716211 265.692881 L 3177.696923 255.337877 L 3177.696923 244.982872 L 3188.716211 234.627867 L 3188.716211 224.272863 L 3177.696923 213.917858 " transform="matrix(0.0999668,0,0,-0.0999668,0,222.872956)"/>
<path style="fill:none;stroke-width:5;stroke-linecap:round;stroke-linejoin:round;stroke:rgb(0%,0%,0%);stroke-opacity:1;stroke-miterlimit:10;" d="M 3177.696923 213.917858 L 3166.716711 213.917858 L 3155.736498 224.272863 L 3144.71721 224.272863 L 3133.736998 213.917858 L 3122.756785 213.917858 L 3111.737498 224.272863 L 3111.737498 234.627867 L 3122.756785 244.982872 L 3133.736998 244.982872 L 3144.71721 234.627867 L 3155.736498 234.627867 L 3166.716711 244.982872 L 3166.716711 255.337877 L 3155.736498 265.692881 L 3155.736498 276.047886 L 3166.716711 286.441966 L 3166.716711 296.796971 L 3155.736498 307.151975 L 3144.71721 307.151975 L 3133.736998 296.796971 L 3122.756785 296.796971 L 3111.737498 307.151975 L 3111.737498 317.50698 L 3122.756785 327.861984 L 3133.736998 327.861984 L 3144.71721 317.50698 L 3155.736498 317.50698 L 3166.716711 327.861984 L 3166.716711 338.216989 L 3155.736498 348.571994 L 3155.736498 358.926998 L 3166.716711 369.282003 L 3177.696923 369.282003 L 3188.716211 358.926998 L 3199.696423 358.926998 L 3210.676636 369.282003 L 3221.695924 369.282003 L 3232.676136 358.926998 L 3232.676136 348.571994 L 3221.695924 338.216989 L 3221.695924 327.861984 L 3232.676136 317.50698 L 3243.695424 317.50698 L 3254.675637 327.861984 L 3254.675637 338.216989 L 3243.695424 348.571994 L 3243.695424 358.926998 L 3254.675637 369.282003 L 3254.675637 379.637007 L 3243.695424 390.031088 " transform="matrix(0.0999668,0,0,-0.0999668,0,222.872956)"/>
<path style="fill:none;stroke-width:5;stroke-linecap:round;stroke-linejoin:round;stroke:rgb(0%,0%,0%);stroke-opacity:1;stroke-miterlimit:10;" d="M 3243.695424 390.031088 L 3232.676136 390.031088 L 3221.695924 379.637007 L 3210.676636 379.637007 L 3199.696423 390.031088 L 3199.696423 400.386092 L 3210.676636 410.741097 L 3210.676636 421.096101 L 3199.696423 431.451106 L 3188.716211 431.451106 L 3177.696923 421.096101 L 3177.696923 410.741097 L 3188.716211 400.386092 L 3188.716211 390.031088 L 3177.696923 379.637007 L 3166.716711 379.637007 L 3155.736498 390.031088 L 3144.71721 390.031088 L 3133.736998 379.637007 L 3122.756785 379.637007 L 3111.737498 390.031088 L 3111.737498 400.386092 L 3122.756785 410.741097 L 3122.756785 421.096101 L 3111.737498 431.451106 L 3100.757285 431.451106 L 3089.777073 421.096101 L 3089.777073 410.741097 L 3100.757285 400.386092 L 3100.757285 390.031088 L 3089.777073 379.637007 L 3089.777073 369.282003 L 3100.757285 358.926998 L 3111.737498 358.926998 L 3122.756785 369.282003 L 3133.736998 369.282003 L 3144.71721 358.926998 L 3144.71721 348.571994 L 3133.736998 338.216989 L 3122.756785 338.216989 L 3111.737498 348.571994 L 3100.757285 348.571994 L 3089.777073 338.216989 L 3089.777073 327.861984 L 3100.757285 317.50698 L 3100.757285 307.151975 L 3089.777073 296.796971 L 3078.757785 296.796971 L 3067.777572 307.151975 L 3056.758284 307.151975 L 3045.778072 296.796971 " transform="matrix(0.0999668,0,0,-0.0999668,0,222.872956)"/>
<path style="fill:none;stroke-width:5;stroke-linecap:round;stroke-linejoin:round;stroke:rgb(0%,0%,0%);stroke-opacity:1;stroke-miterlimit:10;" d="M 3045.778072 296.796971 L 3034.79786 296.796971 L 3023.778572 307.151975 L 3023.778572 317.50698 L 3034.79786 327.861984 L 3045.778072 327.861984 L 3056.758284 317.50698 L 3067.777572 317.50698 L 3078.757785 327.861984 L 3078.757785 338.216989 L 3067.777572 348.571994 L 3067.777572 358.926998 L 3078.757785 369.282003 L 3078.757785 379.637007 L 3067.777572 390.031088 L 3056.758284 390.031088 L 3045.778072 379.637007 L 3034.79786 379.637007 L 3023.778572 390.031088 L 3023.778572 400.386092 L 3034.79786 410.741097 L 3034.79786 421.096101 L 3023.778572 431.451106 L 3012.798359 431.451106 L 3001.818147 421.096101 L 3001.818147 410.741097 L 3012.798359 400.386092 L 3012.798359 390.031088 L 3001.818147 379.637007 L 2990.798859 379.637007 L 2979.818646 390.031088 L 2968.838434 390.031088 L 2957.819146 379.637007 L 2946.838934 379.637007 L 2935.858721 390.031088 L 2935.858721 400.386092 L 2946.838934 410.741097 L 2957.819146 410.741097 L 2968.838434 400.386092 L 2979.818646 400.386092 L 2990.798859 410.741097 L 2990.798859 421.096101 L 2979.818646 431.451106 L 2979.818646 441.806111 L 2990.798859 452.161115 L 2990.798859 462.51612 L 2979.818646 472.9102 L 2968.838434 472.9102 L 2957.819146 462.51612 L 2946.838934 462.51612 L 2935.858721 472.9102 " transform="matrix(0.0999668,0,0,-0.0999668,0,222.872956)"/>
<path style="fill:none;stroke-width:5;stroke-linecap:round;stroke-linejoin:round;stroke:rgb(0%,0%,0%);stroke-opacity:1;stroke-miterlimit:10;" d="M 2935.858721 472.9102 L 2935.858721 483.265205 L 2946.838934 493.620209 L 2957.819146 493.620209 L 2968.838434 483.265205 L 2979.818646 483.265205 L 2990.798859 493.620209 L 2990.798859 503.975214 L 2979.818646 514.330218 L 2979.818646 524.685223 L 2990.798859 535.040228 L 3001.818147 535.040228 L 3012.798359 524.685223 L 3023.778572 524.685223 L 3034.79786 535.040228 L 3045.778072 535.040228 L 3056.758284 524.685223 L 3056.758284 514.330218 L 3045.778072 503.975214 L 3034.79786 503.975214 L 3023.778572 514.330218 L 3012.798359 514.330218 L 3001.818147 503.975214 L 3001.818147 493.620209 L 3012.798359 483.265205 L 3012.798359 472.9102 L 3001.818147 462.51612 L 3001.818147 452.161115 L 3012.798359 441.806111 L 3023.778572 441.806111 L 3034.79786 452.161115 L 3045.778072 452.161115 L 3056.758284 441.806111 L 3056.758284 431.451106 L 3045.778072 421.096101 L 3045.778072 410.741097 L 3056.758284 400.386092 L 3067.777572 400.386092 L 3078.757785 410.741097 L 3078.757785 421.096101 L 3067.777572 431.451106 L 3067.777572 441.806111 L 3078.757785 452.161115 L 3089.777073 452.161115 L 3100.757285 441.806111 L 3111.737498 441.806111 L 3122.756785 452.161115 L 3133.736998 452.161115 L 3144.71721 441.806111 L 3144.71721 431.451106 L 3133.736998 421.096101 " transform="matrix(0.0999668,0,0,-0.0999668,0,222.872956)"/>
<path style="fill:none;stroke-width:5;stroke-linecap:round;stroke-linejoin:round;stroke:rgb(0%,0%,0%);stroke-opacity:1;stroke-miterlimit:10;" d="M 3133.736998 421.096101 L 3133.736998 410.741097 L 3144.71721 400.386092 L 3155.736498 400.386092 L 3166.716711 410.741097 L 3166.716711 421.096101 L 3155.736498 431.451106 L 3155.736498 441.806111 L 3166.716711 452.161115 L 3166.716711 462.51612 L 3155.736498 472.9102 L 3144.71721 472.9102 L 3133.736998 462.51612 L 3122.756785 462.51612 L 3111.737498 472.9102 L 3111.737498 483.265205 L 3122.756785 493.620209 L 3133.736998 493.620209 L 3144.71721 483.265205 L 3155.736498 483.265205 L 3166.716711 493.620209 L 3166.716711 503.975214 L 3155.736498 514.330218 L 3155.736498 524.685223 L 3166.716711 535.040228 L 3177.696923 535.040228 L 3188.716211 524.685223 L 3199.696423 524.685223 L 3210.676636 535.040228 L 3221.695924 535.040228 L 3232.676136 524.685223 L 3232.676136 514.330218 L 3221.695924 503.975214 L 3221.695924 493.620209 L 3232.676136 483.265205 L 3243.695424 483.265205 L 3254.675637 493.620209 L 3254.675637 503.975214 L 3243.695424 514.330218 L 3243.695424 524.685223 L 3254.675637 535.040228 L 3254.675637 545.395232 L 3243.695424 555.750237 L 3232.676136 555.750237 L 3221.695924 545.395232 L 3210.676636 545.395232 L 3199.696423 555.750237 L 3199.696423 566.144317 L 3210.676636 576.499321 L 3210.676636 586.854326 L 3199.696423 597.209331 " transform="matrix(0.0999668,0,0,-0.0999668,0,222.872956)"/>
<path style="fill:none;stroke-width:5;stroke-linecap:round;stroke-linejoin:round;stroke:rgb(0%,0%,0%);stroke-opacity:1;stroke-miterlimit:10;" d="M 3199.696423 597.209331 L 3188.716211 597.209331 L 3177.696923 586.854326 L 3177.696923 576.499321 L 3188.716211 566.144317 L 3188.716211 555.750237 L 3177.696923 545.395232 L 3166.716711 545.395232 L 3155.736498 555.750237 L 3144.71721 555.750237 L 3133.736998 545.395232 L 3122.756785 545.395232 L 3111.737498 555.750237 L 3111.737498 566.144317 L 3122.756785 576.499321 L 3133.736998 576.499321 L 3144.71721 566.144317 L 3155.736498 566.144317 L 3166.716711 576.499321 L 3166.716711 586.854326 L 3155.736498 597.209331 L 3155.736498 607.564335 L 3166.716711 617.91934 L 3166.716711 628.274344 L 3155.736498 638.629349 L 3144.71721 638.629349 L 3133.736998 628.274344 L 3122.756785 628.274344 L 3111.737498 638.629349 L 3111.737498 648.984354 L 3122.756785 659.339358 L 3133.736998 659.339358 L 3144.71721 648.984354 L 3155.736498 648.984354 L 3166.716711 659.339358 L 3166.716711 669.733438 L 3155.736498 680.088443 L 3155.736498 690.443448 L 3166.716711 700.798452 L 3177.696923 700.798452 L 3188.716211 690.443448 L 3199.696423 690.443448 L 3210.676636 700.798452 L 3221.695924 700.798452 L 3232.676136 690.443448 L 3232.676136 680.088443 L 3221.695924 669.733438 L 3210.676636 669.733438 L 3199.696423 680.088443 L 3188.716211 680.088443 L 3177.696923 669.733438 " transform="matrix(0.0999668,0,0,-0.0999668,0,222.872956)"/>
<path style="fill:none;stroke-width:5;stroke-linecap:round;stroke-linejoin:round;stroke:rgb(0%,0%,0%);stroke-opacity:1;stroke-miterlimit:10;" d="M 3177.696923 669.733438 L 3177.696923 659.339358 L 3188.716211 648.984354 L 3188.716211 638.629349 L 3177.696923 628.274344 L 3177.696923 617.91934 L 3188.716211 607.564335 L 3199.696423 607.564335 L 3210.676636 617.91934 L 3221.695924 617.91934 L 3232.676136 607.564335 L 3232.676136 597.209331 L 3221.695924 586.854326 L 3221.695924 576.499321 L 3232.676136 566.144317 L 3243.695424 566.144317 L 3254.675637 576.499321 L 3254.675637 586.854326 L 3243.695424 597.209331 L 3243.695424 607.564335 L 3254.675637 617.91934 L 3265.655849 617.91934 L 3276.675137 607.564335 L 3287.655349 607.564335 L 3298.635562 617.91934 L 3309.65485 617.91934 L 3320.635062 607.564335 L 3320.635062 597.209331 L 3309.65485 586.854326 L 3309.65485 576.499321 L 3320.635062 566.144317 L 3331.615275 566.144317 L 3342.634563 576.499321 L 3342.634563 586.854326 L 3331.615275 597.209331 L 3331.615275 607.564335 L 3342.634563 617.91934 L 3342.634563 628.274344 L 3331.615275 638.629349 L 3320.635062 638.629349 L 3309.65485 628.274344 L 3298.635562 628.274344 L 3287.655349 638.629349 L 3287.655349 648.984354 L 3298.635562 659.339358 L 3309.65485 659.339358 L 3320.635062 648.984354 L 3331.615275 648.984354 L 3342.634563 659.339358 L 3342.634563 669.733438 L 3331.615275 680.088443 " transform="matrix(0.0999668,0,0,-0.0999668,0,222.872956)"/>
<path style="fill:none;stroke-width:5;stroke-linecap:round;stroke-linejoin:round;stroke:rgb(0%,0%,0%);stroke-opacity:1;stroke-miterlimit:10;" d="M 3331.615275 680.088443 L 3331.615275 690.443448 L 3342.634563 700.798452 L 3353.614775 700.798452 L 3364.594987 690.443448 L 3375.614275 690.443448 L 3386.594488 700.798452 L 3397.5747 700.798452 L 3408.593988 690.443448 L 3408.593988 680.088443 L 3397.5747 669.733438 L 3386.594488 669.733438 L 3375.614275 680.088443 L 3364.594987 680.088443 L 3353.614775 669.733438 L 3353.614775 659.339358 L 3364.594987 648.984354 L 3364.594987 638.629349 L 3353.614775 628.274344 L 3353.614775 617.91934 L 3364.594987 607.564335 L 3375.614275 607.564335 L 3386.594488 617.91934 L 3397.5747 617.91934 L 3408.593988 607.564335 L 3408.593988 597.209331 L 3397.5747 586.854326 L 3397.5747 576.499321 L 3408.593988 566.144317 L 3419.574201 566.144317 L 3430.593488 576.499321 L 3430.593488 586.854326 L 3419.574201 597.209331 L 3419.574201 607.564335 L 3430.593488 617.91934 L 3441.573701 617.91934 L 3452.553913 607.564335 L 3463.573201 607.564335 L 3474.553414 617.91934 L 3485.533626 617.91934 L 3496.552914 607.564335 L 3496.552914 597.209331 L 3485.533626 586.854326 L 3474.553414 586.854326 L 3463.573201 597.209331 L 3452.553913 597.209331 L 3441.573701 586.854326 L 3441.573701 576.499321 L 3452.553913 566.144317 L 3452.553913 555.750237 L 3441.573701 545.395232 " transform="matrix(0.0999668,0,0,-0.0999668,0,222.872956)"/>
<path style="fill:none;stroke-width:5;stroke-linecap:round;stroke-linejoin:round;stroke:rgb(0%,0%,0%);stroke-opacity:1;stroke-miterlimit:10;" d="M 3441.573701 545.395232 L 3441.573701 535.040228 L 3452.553913 524.685223 L 3463.573201 524.685223 L 3474.553414 535.040228 L 3485.533626 535.040228 L 3496.552914 524.685223 L 3496.552914 514.330218 L 3485.533626 503.975214 L 3474.553414 503.975214 L 3463.573201 514.330218 L 3452.553913 514.330218 L 3441.573701 503.975214 L 3441.573701 493.620209 L 3452.553913 483.265205 L 3452.553913 472.9102 L 3441.573701 462.51612 L 3430.593488 462.51612 L 3419.574201 472.9102 L 3408.593988 472.9102 L 3397.5747 462.51612 L 3386.594488 462.51612 L 3375.614275 472.9102 L 3375.614275 483.265205 L 3386.594488 493.620209 L 3392.104132 498.778174 " transform="matrix(0.0999668,0,0,-0.0999668,0,222.872956)"/>
<path style="fill:none;stroke-width:5;stroke-linecap:round;stroke-linejoin:round;stroke:rgb(0%,0%,0%);stroke-opacity:1;stroke-miterlimit:10;" d="M 316.706839 1220.033551 L 163.335544 1220.033551 L 112.224805 1167.359792 L 112.224805 1062.051349 L 163.335544 1009.37759 L 265.596099 1009.37759 L 316.706839 956.70383 L 316.706839 851.395387 L 367.817579 798.760703 L 470.078134 798.760703 L 521.188873 851.395387 L 521.188873 956.70383 L 572.299613 1009.37759 L 674.560168 1009.37759 L 725.670908 956.70383 L 725.670908 851.395387 L 776.820723 798.760703 L 879.042202 798.760703 L 930.152942 851.395387 L 930.152942 956.70383 L 879.042202 1009.37759 L 776.820723 1009.37759 L 725.670908 1062.051349 L 725.670908 1167.359792 L 776.820723 1220.033551 L 879.042202 1220.033551 L 930.152942 1272.668235 L 930.152942 1378.015754 L 981.302757 1430.650437 L 1083.524237 1430.650437 L 1134.674052 1378.015754 L 1134.674052 1220.033551 " transform="matrix(0.0999668,0,0,-0.0999668,0,222.872956)"/>
<path style="fill:none;stroke-width:5;stroke-linecap:round;stroke-linejoin:round;stroke:rgb(0%,0%,0%);stroke-opacity:1;stroke-miterlimit:10;" d="M 1463.533368 1260.515758 L 1390.501279 1333.43062 L 1341.81322 1333.43062 L 1293.12516 1284.820712 L 1293.12516 1236.210804 L 1341.81322 1187.600895 L 1341.81322 1138.990987 L 1293.12516 1090.381078 L 1293.12516 1041.77117 L 1341.81322 993.161262 L 1390.501279 993.161262 L 1439.228414 1041.77117 L 1487.916473 1041.77117 L 1536.604533 993.161262 L 1536.604533 944.551353 L 1487.916473 895.941445 L 1487.916473 847.331536 L 1536.604533 798.760703 L 1585.292592 798.760703 L 1633.941576 847.331536 L 1633.941576 895.941445 L 1585.292592 944.551353 L 1585.292592 993.161262 L 1633.941576 1041.77117 L 1682.668711 1041.77117 L 1731.35677 993.161262 L 1780.04483 993.161262 L 1828.732889 1041.77117 L 1877.420948 1041.77117 L 1926.109008 993.161262 L 1926.109008 944.551353 L 1877.420948 895.941445 L 1877.420948 847.331536 L 1926.109008 798.760703 L 1974.797067 798.760703 L 2023.485127 847.331536 L 2023.485127 895.941445 L 1974.797067 944.551353 L 1974.797067 993.161262 L 2023.485127 1041.77117 L 2023.485127 1090.381078 L 1974.797067 1138.990987 L 1926.109008 1138.990987 L 1877.420948 1090.381078 L 1828.732889 1090.381078 L 1780.04483 1138.990987 L 1780.04483 1187.600895 L 1828.732889 1236.210804 L 1877.420948 1236.210804 L 1926.109008 1187.600895 " transform="matrix(0.0999668,0,0,-0.0999668,0,222.872956)"/>
<path style="fill:none;stroke-width:5;stroke-linecap:round;stroke-linejoin:round;stroke:rgb(0%,0%,0%);stroke-opacity:1;stroke-miterlimit:10;" d="M 1926.109008 1187.600895 L 1974.797067 1187.600895 L 2023.485127 1236.210804 L 2023.485127 1284.820712 L 1974.797067 1333.43062 L 1974.797067 1382.040529 L 2023.485127 1430.650437 L 2072.173186 1430.650437 L 2120.861245 1382.040529 L 2169.549305 1382.040529 L 2218.237364 1430.650437 L 2266.925424 1430.650437 L 2315.613483 1382.040529 L 2315.613483 1333.43062 L 2242.581394 1260.515758 " transform="matrix(0.0999668,0,0,-0.0999668,0,222.872956)"/>
<path style="fill:none;stroke-width:5;stroke-linecap:round;stroke-linejoin:round;stroke:rgb(0%,0%,0%);stroke-opacity:1;stroke-miterlimit:10;" d="M 2659.985768 1250.121678 L 2659.985768 1317.800425 L 2636.735852 1340.386058 L 2590.275096 1340.386058 L 2567.02518 1317.800425 L 2567.02518 1272.668235 L 2543.775264 1250.121678 L 2497.314507 1250.121678 L 2474.064591 1227.536045 L 2474.064591 1182.403855 L 2497.314507 1159.818222 L 2543.775264 1159.818222 L 2567.02518 1137.271665 L 2567.02518 1092.139475 L 2543.775264 1069.553843 L 2497.314507 1069.553843 L 2474.064591 1047.007285 L 2474.064591 1001.875096 L 2497.314507 979.289463 L 2543.775264 979.289463 L 2567.02518 1001.875096 L 2567.02518 1047.007285 L 2590.275096 1069.553843 L 2636.735852 1069.553843 L 2659.985768 1047.007285 L 2659.985768 1001.875096 L 2683.196609 979.289463 L 2729.696441 979.289463 L 2752.946357 956.70383 L 2752.946357 911.57164 L 2729.696441 889.025083 L 2683.196609 889.025083 L 2659.985768 866.43945 L 2659.985768 821.307261 L 2683.196609 798.760703 L 2729.696441 798.760703 L 2752.946357 821.307261 L 2752.946357 866.43945 L 2776.157197 889.025083 L 2822.657029 889.025083 L 2845.906945 911.57164 L 2845.906945 956.70383 L 2822.657029 979.289463 L 2776.157197 979.289463 L 2752.946357 1001.875096 L 2752.946357 1047.007285 L 2776.157197 1069.553843 L 2822.657029 1069.553843 L 2845.906945 1047.007285 L 2845.906945 1001.875096 " transform="matrix(0.0999668,0,0,-0.0999668,0,222.872956)"/>
<path style="fill:none;stroke-width:5;stroke-linecap:round;stroke-linejoin:round;stroke:rgb(0%,0%,0%);stroke-opacity:1;stroke-miterlimit:10;" d="M 2845.906945 1001.875096 L 2869.117786 979.289463 L 2915.578542 979.289463 L 2938.828458 1001.875096 L 2938.828458 1047.007285 L 2962.078374 1069.553843 L 3008.539131 1069.553843 L 3031.789047 1047.007285 L 3031.789047 1001.875096 L 3055.038963 979.289463 L 3101.499719 979.289463 L 3124.749635 956.70383 L 3124.749635 911.57164 L 3101.499719 889.025083 L 3055.038963 889.025083 L 3031.789047 866.43945 L 3031.789047 821.307261 L 3055.038963 798.760703 L 3101.499719 798.760703 L 3124.749635 821.307261 L 3124.749635 866.43945 L 3147.960476 889.025083 L 3194.460308 889.025083 L 3217.671148 911.57164 L 3217.671148 956.70383 L 3194.460308 979.289463 L 3147.960476 979.289463 L 3124.749635 1001.875096 L 3124.749635 1047.007285 L 3147.960476 1069.553843 L 3194.460308 1069.553843 L 3217.671148 1092.139475 L 3217.671148 1137.271665 L 3194.460308 1159.818222 L 3147.960476 1159.818222 L 3124.749635 1137.271665 L 3124.749635 1092.139475 L 3101.499719 1069.553843 L 3055.038963 1069.553843 L 3031.789047 1092.139475 L 3031.789047 1137.271665 L 3008.539131 1159.818222 L 2962.078374 1159.818222 L 2938.828458 1182.403855 L 2938.828458 1227.536045 L 2962.078374 1250.121678 L 3008.539131 1250.121678 L 3031.789047 1227.536045 L 3031.789047 1182.403855 L 3055.038963 1159.818222 L 3101.499719 1159.818222 " transform="matrix(0.0999668,0,0,-0.0999668,0,222.872956)"/>
<path style="fill:none;stroke-width:5;stroke-linecap:round;stroke-linejoin:round;stroke:rgb(0%,0%,0%);stroke-opacity:1;stroke-miterlimit:10;" d="M 3101.499719 1159.818222 L 3124.749635 1182.403855 L 3124.749635 1227.536045 L 3147.960476 1250.121678 L 3194.460308 1250.121678 L 3217.671148 1272.668235 L 3217.671148 1317.800425 L 3194.460308 1340.386058 L 3147.960476 1340.386058 L 3124.749635 1362.932615 L 3124.749635 1408.10388 L 3147.960476 1430.650437 L 3194.460308 1430.650437 L 3217.671148 1408.10388 L 3217.671148 1362.932615 L 3240.921064 1340.386058 L 3287.420896 1340.386058 L 3310.631737 1362.932615 L 3310.631737 1408.10388 L 3333.881653 1430.650437 L 3380.34241 1430.650437 L 3403.592326 1408.10388 L 3403.592326 1362.932615 L 3426.842242 1340.386058 L 3473.302998 1340.386058 L 3496.552914 1317.800425 L 3496.552914 1272.668235 L 3473.302998 1250.121678 L 3403.592326 1250.121678 " transform="matrix(0.0999668,0,0,-0.0999668,0,222.872956)"/>
<path style="fill:none;stroke-width:5;stroke-linecap:round;stroke-linejoin:round;stroke:rgb(0%,0%,0%);stroke-opacity:1;stroke-miterlimit:10;" d="M 112.224805 2160.502422 L 495.633504 1528.612688 L 751.265353 1528.612688 L 1006.858127 1949.885536 L 1134.674052 2160.502422 " transform="matrix(0.0999668,0,0,-0.0999668,0,222.872956)"/>
<path style="fill:none;stroke-width:5;stroke-linecap:round;stroke-linejoin:round;stroke:rgb(0%,0%,0%);stroke-opacity:1;stroke-miterlimit:10;" d="M 1293.12516 2160.502422 L 1293.12516 1686.594891 L 1420.941085 1528.612688 L 1676.572935 1528.612688 L 1804.388859 1686.594891 L 1804.388859 2002.559296 L 1932.165709 2160.502422 L 2315.613483 2160.502422 " transform="matrix(0.0999668,0,0,-0.0999668,0,222.872956)"/>
<path style="fill:none;stroke-width:5;stroke-linecap:round;stroke-linejoin:round;stroke:rgb(0%,0%,0%);stroke-opacity:1;stroke-miterlimit:10;" d="M 2635.524512 1970.947225 L 2474.064591 1781.352952 L 2474.064591 1654.98282 L 2581.717564 1528.612688 L 2689.331461 1528.612688 L 2796.945358 1654.98282 L 2904.59833 1654.98282 L 3012.212227 1528.612688 L 3119.826124 1528.612688 L 3227.479096 1654.98282 L 3227.479096 1781.352952 L 3119.826124 1907.762159 L 3119.826124 2034.132291 L 3227.479096 2160.502422 L 3335.092993 2160.502422 L 3442.745966 2034.132291 L 3496.552914 1970.947225 " transform="matrix(0.0999668,0,0,-0.0999668,0,222.872956)"/>
</g>
</svg>
