<?xml version="1.0" encoding="UTF-8"?>
<svg id="Layer_2" xmlns="http://www.w3.org/2000/svg" viewBox="0 0 263.14 167.45">
    <defs>
        <style>
            .cls-1 {
                stroke-width: 1px;
                fill: #605e5c;
            }
        </style>
    </defs>
    <g id="website">
        <path class="cls-1"
            d="m244.99,161.02c4.7-.07,9.44.66,13.86-1.08,2.9-1.11,5.79-4.88,3.41-8.16-1.31-1.79-3.26-2.67-5.34-3.41-7.65-2.33-15.68-2.47-23.44-4.23-3.15-.67-6.28-1.43-9.4-2.19-4.22-1.08-8.5-1.8-12.79-2.47-5.45-1.06-10.82-2.68-16.12-4.46-3.15-1.21-7.29-3.76-9.35-6.3-2.47-3.26,1.18-6,3.21-10.64,1.21-2.49,2.18-5.27,2.7-8.02.9-5.18.97-8.9,1.75-14.08.41-2.58.65-5.59,2.35-7.51,2.69-2.87,6.25,1.07,9.49,1.03,2.56.24,4.89-.65,6.42-3.24,3.53-5.91,6.94-19.5,6.42-26.9-.19-2.3-1.15-4.1-2.76-5.57-1.73-1.6-3.8-2.93-5.8-4.12-4.35-2.56-8.88-4.72-13.74-4.35-2.64.13-5.33.51-7.95-.01-2.52-.45-4.91-1.67-7.39-2.32-3.34-.93-6.81-.83-10.23-.81-5.56.07-11.18.24-16.44,2.33-2.94,1.12-5.76,2.58-8.48,4.28-2.44,1.51-4.97,3.14-7.62,4-6.12,2.01-11.8.37-18.35,3.9-4.5,2.46-8.67,5.86-13.82,3.55-17.92-6.97-34.16-21.12-53.6-22.11-5.18.06-10.47,2.04-15.36,4.1-4.05,1.67-8.62,4.58-12.29.7-2.42-2.52-3.77-6.29-4.69-9.82-2.21-8.56-1.79-17.95.46-26.52.61-2.59,1.07-8.11-2.65-6.18-2,1.3-3.84,4.26-5.08,6.63-9.6,18.28-6.71,23.35-.44,42.29,1.25,4.22.68,8.35-1.46,12.05-1.57,2.9-3.33,5.71-4.8,8.68C.18,81-1.14,90.96.92,103.29c1.19,12.18,8.74,18.12,17.51,23.68,5.26,3.28,8.25,7.51,9.62,14.12,1.35,6.68,2.25,12.98,8.08,16.46,5.53,3.81,18.03,2.65,22.27-3.34,4.29-6.76-3.12-12.29-1.18-16.4,1.84-2.16,5.36-.26,7.69.53,2.27.86,4.55,1.72,6.88,2.39,5.04,1.38,10.22,2.03,15.34,2.82,5.19.51,10.33,1.2,15.44,2.46,5.71,1.04,8.51,2.97,13.19,6.58,2.99,2.2,6.33,3.53,9.84,4.29,9.46,2.23,19.21.69,28.71,2.35,2.6.36,5.21.54,7.82.7,4.46.26,8.84,1.31,13.31,1.74,2.81.28,5.63.45,8.42.9,9.25,1.75,18.39,4.35,27.81,4.75,4.89.2,10.16.41,14.66-1.73,2.03-1.04,2.59-2.3,4.59-3.2,4.44-1.85,9.33-1.34,14.01-1.38h.07Z" />
    </g>
</svg>