<?xml version="1.0" encoding="UTF-8"?><svg id="pencil" xmlns="http://www.w3.org/2000/svg" xmlns:xlink="http://www.w3.org/1999/xlink" viewBox="0 0 953.47 40"><defs><style>.cls-1{clip-path:url(#clippath);}.cls-2{fill:none;}.cls-2,.cls-3,.cls-4,.cls-5,.cls-6,.cls-7,.cls-8,.cls-9,.cls-10,.cls-11,.cls-12{stroke-width:0px;}.cls-3{fill:url(#linear-gradient);}.cls-4{fill:url(#linear-gradient-4);}.cls-5{fill:url(#linear-gradient-2);}.cls-6{fill:url(#linear-gradient-3);}.cls-7{fill:url(#linear-gradient-8);}.cls-8{fill:url(#linear-gradient-7);}.cls-9{fill:url(#linear-gradient-5);}.cls-10{fill:url(#linear-gradient-6);}.cls-11{fill:#1a1a1a;}.cls-12{fill:#eee5a5;}</style><linearGradient id="linear-gradient" x1="50.47" y1=".88" x2="50.47" y2="39.14" gradientUnits="userSpaceOnUse"><stop offset="0" stop-color="#e9b79d"/><stop offset=".1" stop-color="#dfad92"/><stop offset=".49" stop-color="#bc8a6a"/><stop offset=".81" stop-color="#a67452"/><stop offset="1" stop-color="#9f6d49"/></linearGradient><linearGradient id="linear-gradient-2" x1="938.47" y1="0" x2="938.47" y2="40.01" gradientUnits="userSpaceOnUse"><stop offset="0" stop-color="#f48e9b"/><stop offset="1" stop-color="#9c5960"/></linearGradient><linearGradient id="linear-gradient-3" x1="21.51" y1="11.99" x2="21.51" y2="26.85" gradientUnits="userSpaceOnUse"><stop offset="0" stop-color="#616161"/><stop offset=".36" stop-color="#454545"/><stop offset=".75" stop-color="#2d2d2d"/><stop offset="1" stop-color="#252525"/></linearGradient><linearGradient id="linear-gradient-4" x1="476.47" y1="0" x2="476.47" y2="40.01" gradientUnits="userSpaceOnUse"><stop offset="0" stop-color="#f4c35d"/><stop offset="1" stop-color="#b77400"/></linearGradient><clipPath id="clippath"><path class="cls-2" d="m793.47,0H93.47l-3.91.87c.41,1.94,2.16,3.03,3.91,4.13,2,1.25,4,2.5,4,5s-2,3.75-4,5-4,2.5-4,5,2,3.75,4,5,4,2.5,4,5-2,3.75-4,5c-1.75,1.1-3.51,2.19-3.91,4.13l3.91.87h770V0h-70Z"/></clipPath><linearGradient id="linear-gradient-5" x1="83.47" y1="20.01" x2="863.47" y2="20.01" gradientUnits="userSpaceOnUse"><stop offset="0" stop-color="#1a1a1a"/><stop offset=".51" stop-color="#3a3a3a"/><stop offset="1" stop-color="#1a1a1a"/></linearGradient><linearGradient id="linear-gradient-6" x1="893.47" y1="0" x2="893.47" y2="40.01" gradientUnits="userSpaceOnUse"><stop offset="0" stop-color="#c3c3c3"/><stop offset=".08" stop-color="#cbcbcb"/><stop offset=".21" stop-color="#e2e2e2"/><stop offset=".33" stop-color="#fff"/><stop offset=".5" stop-color="#c3c3c3"/><stop offset=".55" stop-color="#b3b3b3"/><stop offset=".69" stop-color="#878787"/><stop offset=".82" stop-color="#676767"/><stop offset=".93" stop-color="#545454"/><stop offset="1" stop-color="#4d4d4d"/></linearGradient><linearGradient id="linear-gradient-7" x1="880.98" y1="20.01" x2="885.97" y2="20.01" gradientUnits="userSpaceOnUse"><stop offset="0" stop-color="#7a7a7a"/><stop offset=".51" stop-color="#fff"/><stop offset="1" stop-color="#575757"/></linearGradient><linearGradient id="linear-gradient-8" x1="900.97" x2="905.97" xlink:href="#linear-gradient-7"/></defs><g id="pencil-2"><path id="tip" class="cls-3" d="m89.47,20.01c0-5,8-5,8-10,0-4.69-7.04-4.98-7.91-9.13l-6.09,1.35h0L3.47,20.01l80,17.78h0l6.09,1.35c.87-4.15,7.91-4.44,7.91-9.13,0-5-8-5-8-10Z"/><path id="eraser" class="cls-5" d="m923.47,0h21.09c4.92,0,8.91,3.99,8.91,8.91v22.17c0,4.92-3.99,8.91-8.91,8.91h-21.09V0h0Z"/><g id="lead"><path class="cls-6" d="m31.1,22.07c-.37-3.5,2.86-7.06,8.45-10.08L3.47,20.01l30.81,6.85c-1.86-1.39-2.99-2.99-3.17-4.79Z"/></g><path id="yellow" class="cls-4" d="m793.47,0H93.47l-3.91.87c.41,1.94,2.16,3.03,3.91,4.13,2,1.25,4,2.5,4,5s-2,3.75-4,5-4,2.5-4,5,2,3.75,4,5,4,2.5,4,5-2,3.75-4,5c-1.75,1.1-3.51,2.19-3.91,4.13l3.91.87h770V0h-70Z"/><g id="stripe"><g class="cls-1"><rect class="cls-9" x="83.47" y="10.01" width="780" height="20"/></g></g><g id="metal"><rect id="metal-2" class="cls-10" x="863.47" y="0" width="60" height="40"/><rect class="cls-8" x="880.98" y="-.58" width="4.99" height="41.17" rx=".66" ry=".66"/><rect class="cls-7" x="900.97" y="-.58" width="5" height="41.17" rx=".66" ry=".66"/></g></g><rect class="cls-12" x="783.31" y="12.04" width="27.18" height="16.05"/><path class="cls-11" d="m786.18,26.75v-13.05h2.66v10.83h6.61v2.22h-9.26Z"/><path class="cls-11" d="m798.08,26.75v-13.16h4.26c1.62,0,2.67.07,3.16.2.75.2,1.39.63,1.89,1.29s.76,1.52.76,2.56c0,.81-.15,1.49-.44,2.04s-.67.98-1.12,1.3-.91.52-1.38.62c-.63.13-1.55.19-2.76.19h-1.73v4.96h-2.66Zm2.66-10.93v3.73h1.45c1.05,0,1.75-.07,2.1-.21s.63-.35.83-.65.3-.63.3-1.02c0-.48-.14-.87-.42-1.18s-.64-.51-1.07-.58c-.32-.06-.95-.09-1.91-.09h-1.28Z"/><path class="cls-12" d="m418.46,22.4l2.07.52c-.43,1.7-1.21,3-2.34,3.89s-2.51,1.34-4.13,1.34-3.06-.34-4.11-1.03-1.86-1.68-2.41-2.98-.83-2.7-.83-4.19c0-1.63.31-3.05.93-4.26.62-1.21,1.51-2.13,2.66-2.76s2.41-.94,3.79-.94c1.57,0,2.88.4,3.95,1.2,1.07.8,1.81,1.92,2.23,3.36l-2.04.48c-.36-1.14-.89-1.97-1.58-2.49s-1.56-.78-2.6-.78c-1.2,0-2.21.29-3.01.86s-1.37,1.35-1.7,2.32-.49,1.97-.49,3c0,1.33.19,2.49.58,3.48s.99,1.73,1.81,2.22,1.7.74,2.66.74c1.16,0,2.14-.33,2.95-1s1.35-1.66,1.63-2.98Z"/><path class="cls-12" d="m424.82,27.88v-15.64h1.92v15.64h-1.92Z"/><path class="cls-12" d="m431.71,14.45v-2.21h1.92v2.21h-1.92Zm0,13.43v-11.33h1.92v11.33h-1.92Z"/><path class="cls-12" d="m446.03,23.73l1.89.25c-.21,1.3-.73,2.32-1.58,3.06s-1.89,1.1-3.13,1.1c-1.55,0-2.8-.51-3.74-1.52-.94-1.01-1.41-2.47-1.41-4.36,0-1.22.2-2.29.61-3.21s1.02-1.61,1.85-2.06,1.73-.69,2.7-.69c1.23,0,2.24.31,3.02.93s1.28,1.51,1.5,2.65l-1.87.29c-.18-.76-.49-1.33-.94-1.72s-1-.58-1.64-.58c-.97,0-1.75.35-2.36,1.04s-.91,1.79-.91,3.29.29,2.63.87,3.32,1.34,1.04,2.28,1.04c.75,0,1.38-.23,1.89-.69s.83-1.17.96-2.13Z"/><path class="cls-12" d="m451.83,27.88v-15.64h1.92v8.92l4.55-4.61h2.49l-4.33,4.2,4.77,7.13h-2.37l-3.75-5.79-1.36,1.3v4.49h-1.92Z"/><path class="cls-12" d="m473.37,27.88v-15.64h3.12l3.7,11.08c.34,1.03.59,1.8.75,2.32.18-.57.46-1.4.83-2.51l3.75-10.88h2.79v15.64h-2v-13.09l-4.55,13.09h-1.87l-4.52-13.32v13.32h-2Z"/><path class="cls-12" d="m501.42,24.23l1.98.25c-.31,1.16-.89,2.06-1.74,2.7s-1.93.96-3.24.96c-1.66,0-2.97-.51-3.94-1.53s-1.46-2.45-1.46-4.29.49-3.39,1.47-4.44c.98-1.05,2.26-1.58,3.82-1.58s2.75.52,3.71,1.55,1.44,2.48,1.44,4.35c0,.11,0,.28-.01.51h-8.45c.07,1.24.42,2.2,1.06,2.86s1.42.99,2.37.99c.7,0,1.31-.18,1.8-.55s.89-.96,1.18-1.77Zm-6.31-3.11h6.33c-.09-.95-.33-1.67-.73-2.14-.61-.74-1.4-1.11-2.38-1.11-.88,0-1.62.3-2.22.89s-.93,1.38-1,2.37Z"/></svg>