<?xml version="1.0" encoding="UTF-8"?><svg id="Layer_2" xmlns="http://www.w3.org/2000/svg" xmlns:xlink="http://www.w3.org/1999/xlink" viewBox="0 0 400 41.17"><defs><style>.cls-1{clip-path:url(#clippath);}.cls-2,.cls-3,.cls-4,.cls-5,.cls-6,.cls-7,.cls-8,.cls-9,.cls-10,.cls-11,.cls-12{stroke-width:0px;}.cls-2,.cls-13{fill:none;}.cls-3{fill:url(#linear-gradient);}.cls-14{font-family:ArialMT, Arial;font-size:22.88px;letter-spacing:.04em;}.cls-14,.cls-12{fill:#ede5ac;}.cls-13{stroke:#ede5ac;stroke-linecap:round;stroke-linejoin:round;stroke-width:2px;}.cls-4{fill:url(#linear-gradient-4);}.cls-5{fill:url(#linear-gradient-2);}.cls-6{fill:url(#linear-gradient-3);}.cls-7{fill:url(#linear-gradient-8);}.cls-8{fill:url(#linear-gradient-7);}.cls-9{fill:url(#linear-gradient-5);}.cls-10{fill:url(#linear-gradient-6);}.cls-11{fill:#1a1a1a;}</style><linearGradient id="linear-gradient" x1="47" y1="987.33" x2="47" y2="949.07" gradientTransform="translate(0 988.79) scale(1 -1)" gradientUnits="userSpaceOnUse"><stop offset="0" stop-color="#e2b9a1"/><stop offset=".1" stop-color="#d8af96"/><stop offset=".49" stop-color="#b58c6f"/><stop offset=".81" stop-color="#a07658"/><stop offset="1" stop-color="#98704f"/></linearGradient><linearGradient id="linear-gradient-2" x1="385" y1="988.21" x2="385" y2="948.22" gradientTransform="translate(0 988.79) scale(1 -1)" gradientUnits="userSpaceOnUse"><stop offset="0" stop-color="#e7949d"/><stop offset="1" stop-color="#955d62"/></linearGradient><linearGradient id="linear-gradient-3" x1="18.04" y1="976.22" x2="18.04" y2="961.35" gradientTransform="translate(0 988.79) scale(1 -1)" gradientUnits="userSpaceOnUse"><stop offset="0" stop-color="#626262"/><stop offset=".36" stop-color="#464646"/><stop offset=".75" stop-color="#2d2e2d"/><stop offset="1" stop-color="#262525"/></linearGradient><linearGradient id="linear-gradient-4" x1="198" y1="988.21" x2="198" y2="948.21" gradientTransform="translate(0 988.79) scale(1 -1)" gradientUnits="userSpaceOnUse"><stop offset="0" stop-color="#ecc36d"/><stop offset="1" stop-color="#ae783a"/></linearGradient><clipPath id="clippath"><path class="cls-2" d="m260,.58H90l-3.91.87c.41,1.94,2.16,3.03,3.91,4.13,2,1.25,4,2.5,4,5s-2,3.75-4,5-4,2.5-4,5,2,3.75,4,5,4,2.5,4,5-2,3.75-4,5c-1.75,1.1-3.51,2.19-3.91,4.13l3.91.87h220V.58h-50Z"/></clipPath><linearGradient id="linear-gradient-5" x1="80" y1="968.2" x2="310" y2="968.2" gradientTransform="translate(0 988.79) scale(1 -1)" gradientUnits="userSpaceOnUse"><stop offset="0" stop-color="#1a1a1a"/><stop offset=".51" stop-color="#3a3b3a"/><stop offset="1" stop-color="#1a1a1a"/></linearGradient><linearGradient id="linear-gradient-6" x1="340" y1="988.21" x2="340" y2="948.21" gradientTransform="translate(0 988.79) scale(1 -1)" gradientUnits="userSpaceOnUse"><stop offset="0" stop-color="#c3c3c3"/><stop offset=".08" stop-color="#cbcbcb"/><stop offset=".21" stop-color="#e2e2e2"/><stop offset=".33" stop-color="#fff"/><stop offset=".5" stop-color="#c3c3c3"/><stop offset=".55" stop-color="#b4b4b4"/><stop offset=".69" stop-color="#878787"/><stop offset=".82" stop-color="#676868"/><stop offset=".93" stop-color="#555"/><stop offset="1" stop-color="#4e4e4e"/></linearGradient><linearGradient id="linear-gradient-7" x1="327.51" y1="968.2" x2="332.5" y2="968.2" gradientTransform="translate(0 988.79) scale(1 -1)" gradientUnits="userSpaceOnUse"><stop offset="0" stop-color="#7b7b7b"/><stop offset=".51" stop-color="#fff"/><stop offset="1" stop-color="#575858"/></linearGradient><linearGradient id="linear-gradient-8" x1="347.5" x2="352.5" xlink:href="#linear-gradient-7"/></defs><g id="Layer_1-2"><path id="tip" class="cls-3" d="m86,20.59c0-5,8-5,8-10,0-4.69-7.04-4.98-7.91-9.13l-6.09,1.35h0L0,20.59l80,17.78h0l6.09,1.35c.87-4.15,7.91-4.44,7.91-9.13,0-5-8-5-8-10Z"/><path id="eraser" class="cls-5" d="m370,.58h21.09c4.92,0,8.91,3.99,8.91,8.91v22.17c0,4.92-3.99,8.91-8.91,8.91h-21.09V.58h0Z"/><g id="lead"><path class="cls-6" d="m27.63,22.65c-.37-3.5,2.86-7.06,8.45-10.08L0,20.59l30.81,6.85c-1.86-1.39-2.99-2.99-3.17-4.79h0Z"/></g><path id="yellow" class="cls-4" d="m260,.58H90l-3.91.87c.41,1.94,2.16,3.03,3.91,4.13,2,1.25,4,2.5,4,5s-2,3.75-4,5-4,2.5-4,5,2,3.75,4,5,4,2.5,4,5-2,3.75-4,5c-1.75,1.1-3.51,2.19-3.91,4.13l3.91.87h220V.58h-50Z"/><g id="stripe"><g class="cls-1"><rect class="cls-9" x="80" y="10.59" width="230" height="20"/></g></g><g id="metal"><rect id="metal-2" class="cls-10" x="310" y=".58" width="60" height="40"/><rect class="cls-8" x="327.51" width="4.99" height="41.17" rx=".66" ry=".66"/><rect class="cls-7" x="347.5" width="5" height="41.17" rx=".66" ry=".66"/></g><rect class="cls-12" x="259.84" y="12.62" width="27.18" height="16.05"/><path class="cls-11" d="m262.71,27.33v-13.05h2.66v10.83h6.61v2.22h-9.27Z"/><path class="cls-11" d="m274.61,27.33v-13.16h4.26c1.62,0,2.67.07,3.16.2.75.2,1.39.63,1.89,1.29s.76,1.52.76,2.56c0,.81-.15,1.49-.44,2.04s-.67.98-1.12,1.3-.91.52-1.38.62c-.63.13-1.55.19-2.76.19h-1.73v4.96h-2.66.02Zm2.66-10.93v3.73h1.45c1.05,0,1.75-.07,2.1-.21s.63-.35.83-.65.3-.63.3-1.02c0-.48-.14-.87-.42-1.18s-.64-.51-1.07-.58c-.32-.06-.95-.09-1.91-.09h-1.28Z"/><text class="cls-14" transform="translate(130.55 28.58)"><tspan x="0" y="0" xml:space="preserve"> Back</tspan></text><polyline class="cls-13" points="133.55 20.59 105.88 20.59 117.04 13.64"/><line class="cls-13" x1="105.88" y1="20.59" x2="117.04" y2="27.54"/></g></svg>